<svg xmlns="http://www.w3.org/2000/svg" xmlns:xlink="http://www.w3.org/1999/xlink" width="500" zoomAndPan="magnify" viewBox="0 0 375 374.999991" height="500" preserveAspectRatio="xMidYMid meet" version="1.0"><defs><clipPath id="cbdb44f7d0"><path d="M 33 242.5 L 341.960938 242.5 L 341.960938 280.058594 L 33 280.058594 Z M 33 242.5 " clip-rule="nonzero"/></clipPath><clipPath id="8295021b8a"><path d="M 141.574219 242.5 L 332.179688 242.5 C 336.863281 242.5 340.878906 245.84375 341.726562 250.449219 C 342.570312 255.058594 340.007812 259.613281 335.628906 261.277344 C 302.984375 273.695312 268.351562 280.058594 233.425781 280.058594 L 42.820312 280.058594 C 38.136719 280.058594 34.121094 276.710938 33.273438 272.105469 C 32.429688 267.496094 34.992188 262.941406 39.371094 261.277344 C 72.015625 248.863281 106.648438 242.5 141.574219 242.5 Z M 141.574219 242.5 " clip-rule="nonzero"/></clipPath><clipPath id="4ee77708fe"><path d="M 62.140625 190 L 228 190 L 228 222.582031 L 62.140625 222.582031 Z M 62.140625 190 " clip-rule="nonzero"/></clipPath><clipPath id="bb9d144267"><path d="M 70.503906 196.816406 L 103.585938 192.679688 C 131.109375 189.238281 158.953125 189.238281 186.476562 192.679688 L 219.558594 196.816406 C 224.335938 197.414062 227.917969 201.472656 227.917969 206.289062 C 227.917969 211.101562 224.335938 215.164062 219.558594 215.761719 L 186.476562 219.894531 C 158.953125 223.335938 131.109375 223.335938 103.585938 219.894531 L 70.503906 215.761719 C 65.726562 215.164062 62.140625 211.101562 62.140625 206.289062 C 62.140625 201.472656 65.726562 197.414062 70.503906 196.816406 Z M 70.503906 196.816406 " clip-rule="nonzero"/></clipPath><clipPath id="0f38ad6ff4"><path d="M 69 66 L 169 66 L 169 172 L 69 172 Z M 69 66 " clip-rule="nonzero"/></clipPath><clipPath id="f4378bc52a"><path d="M 80.390625 59.148438 L 176.027344 103.761719 L 134.558594 192.65625 L 38.921875 148.042969 Z M 80.390625 59.148438 " clip-rule="nonzero"/></clipPath><clipPath id="db7582d809"><path d="M 107.820312 168.058594 L 159.734375 131.371094 C 165.945312 126.980469 169.347656 119.621094 168.667969 112.050781 C 167.992188 104.476562 163.332031 97.839844 156.445312 94.625 L 99.792969 68.199219 C 92.902344 64.984375 84.824219 65.683594 78.585938 70.027344 C 72.347656 74.375 68.894531 81.710938 69.523438 89.289062 L 74.773438 152.640625 C 75.394531 160.152344 79.992188 166.753906 86.824219 169.9375 C 93.652344 173.125 101.664062 172.40625 107.820312 168.058594 Z M 107.820312 168.058594 " clip-rule="nonzero"/></clipPath><clipPath id="c105aa9b0f"><path d="M 42 215 L 257 215 L 257 248 L 42 248 Z M 42 215 " clip-rule="nonzero"/></clipPath><clipPath id="407e59d284"><path d="M 42.3125 226.25 L 256.390625 215.011719 L 257.527344 236.683594 L 43.453125 247.917969 Z M 42.3125 226.25 " clip-rule="nonzero"/></clipPath><clipPath id="2bf57e8af7"><path d="M 53.148438 225.679688 L 245.515625 215.582031 C 248.390625 215.433594 251.207031 216.429688 253.34375 218.355469 C 255.484375 220.277344 256.769531 222.976562 256.921875 225.847656 C 257.070312 228.722656 256.074219 231.539062 254.148438 233.675781 C 252.222656 235.816406 249.527344 237.101562 246.65625 237.253906 L 54.285156 247.351562 C 51.414062 247.5 48.597656 246.503906 46.457031 244.578125 C 44.320312 242.65625 43.035156 239.957031 42.882812 237.085938 C 42.730469 234.210938 43.730469 231.394531 45.652344 229.257812 C 47.578125 227.117188 50.273438 225.832031 53.148438 225.679688 Z M 53.148438 225.679688 " clip-rule="nonzero"/></clipPath><clipPath id="729f0c452a"><path d="M 82.875 170.710938 L 108.742188 170.710938 L 108.742188 194.109375 L 82.875 194.109375 Z M 82.875 170.710938 " clip-rule="nonzero"/></clipPath><clipPath id="0a8b1825f2"><path d="M 95.824219 194.109375 C 100.480469 194.109375 104.617188 191.128906 106.089844 186.710938 L 108.339844 179.960938 C 109.054688 177.816406 108.695312 175.460938 107.375 173.628906 C 106.054688 171.796875 103.933594 170.710938 101.671875 170.710938 L 89.976562 170.710938 C 87.714844 170.710938 85.59375 171.796875 84.273438 173.628906 C 82.953125 175.460938 82.59375 177.816406 83.308594 179.960938 L 85.558594 186.710938 C 87.03125 191.128906 91.167969 194.109375 95.824219 194.109375 Z M 95.824219 194.109375 " clip-rule="nonzero"/></clipPath></defs><rect x="-37.5" width="450" fill="#ffffff" y="-37.499999" height="449.999989" fill-opacity="1"/><rect x="-37.5" width="450" fill="#f1f5f9" y="-37.499999" height="449.999989" fill-opacity="1"/><g clip-path="url(#cbdb44f7d0)"><g clip-path="url(#8295021b8a)"><path fill="#94a3b8" d="M -10.003906 242.5 L 384.949219 242.5 L 384.949219 280.058594 L -10.003906 280.058594 Z M -10.003906 242.5 " fill-opacity="1" fill-rule="nonzero"/></g></g><g clip-path="url(#4ee77708fe)"><g clip-path="url(#bb9d144267)"><path fill="#cbd5e1" d="M 62.140625 187.5 L 227.859375 187.5 L 227.859375 225.078125 L 62.140625 225.078125 Z M 62.140625 187.5 " fill-opacity="1" fill-rule="nonzero"/></g></g><g clip-path="url(#0f38ad6ff4)"><g clip-path="url(#f4378bc52a)"><g clip-path="url(#db7582d809)"><path fill="#64748b" d="M 66.488281 52.664062 L 189.929688 110.246094 L 139.617188 218.097656 L 16.175781 160.515625 Z M 66.488281 52.664062 " fill-opacity="1" fill-rule="nonzero"/></g></g></g><g clip-path="url(#c105aa9b0f)"><g clip-path="url(#407e59d284)"><g clip-path="url(#2bf57e8af7)"><path fill="#334155" d="M 42.3125 226.25 L 256.390625 215.011719 L 257.527344 236.683594 L 43.453125 247.917969 Z M 42.3125 226.25 " fill-opacity="1" fill-rule="nonzero"/></g></g></g><g clip-path="url(#729f0c452a)"><g clip-path="url(#0a8b1825f2)"><path fill="#334155" d="M 80.226562 170.710938 L 111.394531 170.710938 L 111.394531 194.109375 L 80.226562 194.109375 Z M 80.226562 170.710938 " fill-opacity="1" fill-rule="nonzero"/></g></g></svg>