<svg xmlns="http://www.w3.org/2000/svg" xmlns:xlink="http://www.w3.org/1999/xlink" width="512" zoomAndPan="magnify" viewBox="0 0 384 383.999986" height="512" preserveAspectRatio="xMidYMid meet" version="1.0"><defs><clipPath id="57bf907991"><path d="M 33.773438 248.320312 L 350.167969 248.320312 L 350.167969 286.777344 L 33.773438 286.777344 Z M 33.773438 248.320312 " clip-rule="nonzero"/></clipPath><clipPath id="ff2ba16f9b"><path d="M 144.972656 248.320312 L 340.152344 248.320312 C 344.949219 248.320312 349.058594 251.746094 349.925781 256.460938 C 350.792969 261.179688 348.167969 265.84375 343.683594 267.546875 C 310.257812 280.261719 274.792969 286.777344 239.027344 286.777344 L 43.847656 286.777344 C 39.050781 286.777344 34.941406 283.351562 34.074219 278.636719 C 33.207031 273.917969 35.832031 269.253906 40.316406 267.546875 C 73.742188 254.835938 109.207031 248.320312 144.972656 248.320312 Z M 144.972656 248.320312 " clip-rule="nonzero"/></clipPath><clipPath id="f7304440af"><path d="M 63.632812 194.554688 L 233.480469 194.554688 L 233.480469 227.921875 L 63.632812 227.921875 Z M 63.632812 194.554688 " clip-rule="nonzero"/></clipPath><clipPath id="99403aa698"><path d="M 72.195312 201.539062 L 106.074219 197.304688 C 134.253906 193.78125 162.769531 193.78125 190.949219 197.304688 L 224.828125 201.539062 C 229.71875 202.152344 233.390625 206.308594 233.390625 211.238281 C 233.390625 216.167969 229.71875 220.328125 224.828125 220.9375 L 190.949219 225.171875 C 162.769531 228.695312 134.253906 228.695312 106.074219 225.171875 L 72.195312 220.9375 C 67.304688 220.328125 63.632812 216.167969 63.632812 211.238281 C 63.632812 206.308594 67.304688 202.152344 72.195312 201.539062 Z M 72.195312 201.539062 " clip-rule="nonzero"/></clipPath><clipPath id="88c4e18220"><path d="M 71 67 L 174 67 L 174 177 L 71 177 Z M 71 67 " clip-rule="nonzero"/></clipPath><clipPath id="3fe5b338e4"><path d="M 81.886719 60.367188 L 180.683594 106.453125 L 138.019531 197.910156 L 39.226562 151.828125 Z M 81.886719 60.367188 " clip-rule="nonzero"/></clipPath><clipPath id="f0a656fb0b"><path d="M 109.6875 172.597656 L 164.289062 134.011719 C 170.5 129.625 173.902344 122.265625 173.222656 114.695312 C 172.546875 107.121094 167.886719 100.484375 160.996094 97.269531 L 101.386719 69.460938 C 94.496094 66.25 86.417969 66.945312 80.179688 71.292969 C 73.941406 75.636719 70.488281 82.976562 71.117188 90.550781 L 76.640625 157.183594 C 77.261719 164.695312 81.859375 171.292969 88.691406 174.480469 C 95.519531 177.667969 103.53125 176.949219 109.6875 172.597656 Z M 109.6875 172.597656 " clip-rule="nonzero"/></clipPath><clipPath id="2f70c3d14f"><path d="M 43 220 L 264 220 L 264 254 L 43 254 Z M 43 220 " clip-rule="nonzero"/></clipPath><clipPath id="e27fde7ff2"><path d="M 43.328125 231.679688 L 262.542969 220.171875 L 263.707031 242.363281 L 44.496094 253.871094 Z M 43.328125 231.679688 " clip-rule="nonzero"/></clipPath><clipPath id="0abc2a632e"><path d="M 54.425781 231.097656 L 251.410156 220.757812 C 254.351562 220.601562 257.234375 221.621094 259.425781 223.59375 C 261.617188 225.566406 262.933594 228.328125 263.085938 231.269531 C 263.242188 234.210938 262.222656 237.09375 260.25 239.285156 C 258.277344 241.476562 255.515625 242.792969 252.574219 242.945312 L 55.589844 253.289062 C 52.648438 253.441406 49.761719 252.421875 47.574219 250.449219 C 45.382812 248.476562 44.066406 245.71875 43.910156 242.773438 C 43.757812 239.832031 44.777344 236.949219 46.75 234.757812 C 48.722656 232.570312 51.480469 231.25 54.425781 231.097656 Z M 54.425781 231.097656 " clip-rule="nonzero"/></clipPath><clipPath id="e6427460d2"><path d="M 84.863281 174.808594 L 111.445312 174.808594 L 111.445312 198.765625 L 84.863281 198.765625 Z M 84.863281 174.808594 " clip-rule="nonzero"/></clipPath><clipPath id="399513d2ab"><path d="M 98.125 198.765625 C 102.894531 198.765625 107.128906 195.714844 108.636719 191.191406 L 111.015625 184.054688 C 111.730469 181.914062 111.371094 179.558594 110.046875 177.726562 C 108.726562 175.890625 106.605469 174.808594 104.347656 174.808594 L 91.898438 174.808594 C 89.640625 174.808594 87.519531 175.890625 86.199219 177.726562 C 84.878906 179.558594 84.519531 181.914062 85.234375 184.054688 L 87.613281 191.191406 C 89.121094 195.714844 93.355469 198.765625 98.125 198.765625 Z M 98.125 198.765625 " clip-rule="nonzero"/></clipPath></defs><g clip-path="url(#57bf907991)"><g clip-path="url(#ff2ba16f9b)"><path fill="#94a3b8" d="M -10.246094 248.320312 L 394.1875 248.320312 L 394.1875 286.777344 L -10.246094 286.777344 Z M -10.246094 248.320312 " fill-opacity="1" fill-rule="nonzero"/></g></g><g clip-path="url(#f7304440af)"><g clip-path="url(#99403aa698)"><path fill="#cbd5e1" d="M 63.632812 192 L 233.328125 192 L 233.328125 230.476562 L 63.632812 230.476562 Z M 63.632812 192 " fill-opacity="1" fill-rule="nonzero"/></g></g><g clip-path="url(#88c4e18220)"><g clip-path="url(#3fe5b338e4)"><g clip-path="url(#f0a656fb0b)"><path fill="#64748b" d="M 68.082031 53.925781 L 194.488281 112.890625 L 142.96875 223.332031 L 16.566406 164.367188 Z M 68.082031 53.925781 " fill-opacity="1" fill-rule="nonzero"/></g></g></g><g clip-path="url(#2f70c3d14f)"><g clip-path="url(#e27fde7ff2)"><g clip-path="url(#0abc2a632e)"><path fill="#334155" d="M 43.328125 231.679688 L 262.542969 220.171875 L 263.707031 242.363281 L 44.496094 253.871094 Z M 43.328125 231.679688 " fill-opacity="1" fill-rule="nonzero"/></g></g></g><g clip-path="url(#e6427460d2)"><g clip-path="url(#399513d2ab)"><path fill="#334155" d="M 82.148438 174.808594 L 114.066406 174.808594 L 114.066406 198.765625 L 82.148438 198.765625 Z M 82.148438 174.808594 " fill-opacity="1" fill-rule="nonzero"/></g></g></svg>